<svg width="160" height="160" viewBox="0 0 160 160" fill="none" xmlns="http://www.w3.org/2000/svg">
<g clip-path="url(#clip0_5195_1231)">
<path fill-rule="evenodd" clip-rule="evenodd" d="M-8.88867 -7.77734H168.889V170H-8.88867V-7.77734ZM107.516 128.981C122.866 142.583 152 127.307 152 79.7001C152 31.4651 121.195 20.0603 108.247 30.6281C102.524 35.3525 98.9479 42.5235 95.399 49.6394C89.7522 60.9619 84.1751 72.1445 70.132 73.1083C57.8623 73.8906 51.8479 66.4057 46.107 59.2612C41.0988 53.0287 36.2989 47.0552 27.736 47.0552C11.9681 47.0552 8 66.3073 8 80.4325C8 94.2438 11.5504 121.134 30.0334 121.134C36.9768 121.134 41.2825 114.987 45.9488 108.325C51.9494 99.758 58.5464 90.3396 72.116 92.0466C84.1111 93.5654 90.033 103.462 95.9465 113.344C99.4024 119.12 102.855 124.89 107.516 128.981Z" fill="#97FCE4"/>
</g>
<defs>
<clipPath id="clip0_5195_1231">
<rect width="160" height="160" fill="white"/>
</clipPath>
</defs>
</svg>
