<svg width="1200" height="600" viewBox="0 0 1200 600" fill="none" xmlns="http://www.w3.org/2000/svg">
<rect width="1200" height="600" fill="url(#paint0_linear_5192_1224)"/>
<g clip-path="url(#clip0_5192_1224)">
<path d="M777.778 124.444H422.223V480H777.778V124.444Z" fill="url(#paint1_linear_5192_1224)"/>
<path d="M744 299.398C744 394.612 685.732 425.164 655.032 397.96C629.761 375.778 622.242 328.904 584.232 324.091C535.988 318.023 531.811 382.266 500.067 382.266C463.101 382.266 456 328.486 456 300.863C456 272.613 463.936 234.108 495.472 234.108C532.229 234.108 534.318 289.144 580.264 286.215C626.001 283.076 626.837 225.738 656.494 201.254C682.39 180.119 744 202.928 744 299.398Z" fill="url(#paint2_linear_5192_1224)"/>
</g>
<defs>
<linearGradient id="paint0_linear_5192_1224" x1="8.9407e-06" y1="300" x2="1200" y2="300" gradientUnits="userSpaceOnUse">
<stop offset="0.5" stop-color="#0F1A1E"/>
<stop offset="0.5" stop-color="#97FCE4"/>
</linearGradient>
<linearGradient id="paint1_linear_5192_1224" x1="437" y1="301.999" x2="763" y2="301.999" gradientUnits="userSpaceOnUse">
<stop offset="0.5" stop-color="#0F1A1E"/>
<stop offset="0.5" stop-color="#97FCE4"/>
</linearGradient>
<linearGradient id="paint2_linear_5192_1224" x1="439" y1="299.998" x2="759" y2="299.998" gradientUnits="userSpaceOnUse">
<stop offset="0.499627" stop-color="#97FCE4"/>
<stop offset="0.500632" stop-color="#0F1A1E"/>
</linearGradient>
<clipPath id="clip0_5192_1224">
<rect width="320" height="320" fill="white" transform="translate(440 140)"/>
</clipPath>
</defs>
</svg>
