<svg xmlns="http://www.w3.org/2000/svg" version="1.1" xmlns:xlink="http://www.w3.org/1999/xlink" xmlns:svgjs="http://svgjs.dev/svgjs" width="1000" height="1000"><g clip-path="url(#SvgjsClipPath1169)"><rect width="1000" height="1000" fill="#0f1a1e"></rect><g transform="matrix(6.25,0,0,6.25,0,0)"><svg xmlns="http://www.w3.org/2000/svg" version="1.1" xmlns:xlink="http://www.w3.org/1999/xlink" xmlns:svgjs="http://svgjs.dev/svgjs" width="160" height="160"><svg width="160" height="160" viewBox="0 0 160 160" fill="none" xmlns="http://www.w3.org/2000/svg">
<g clip-path="url(#clip0_5196_1276)">
<g clip-path="url(#clip1_5196_1276)">
<path fill-rule="evenodd" clip-rule="evenodd" d="M80 70.188V94.5861C77.6829 93.3106 75.0855 92.4211 72.116 92.0451C58.5464 90.3382 51.9494 99.7566 45.9488 108.323C41.2825 114.985 36.9768 121.133 30.0334 121.133C11.5504 121.133 8 94.2423 8 80.431C8 66.3058 11.9681 47.0537 27.736 47.0537C36.2989 47.0537 41.0988 53.0272 46.107 59.2598C51.8479 66.4043 57.8623 73.8892 70.132 73.1068C74.0058 72.841 77.2354 71.7975 80 70.188Z" fill="#97FCE4"></path>
<g clip-path="url(#clip2_5196_1276)">
<path fill-rule="evenodd" clip-rule="evenodd" d="M168.889 -7.77734H-8.88867V170H168.889V-7.77734ZM152 79.7001C152 127.307 122.866 142.583 107.516 128.981C102.855 124.89 99.4024 119.12 95.9465 113.344C91.497 105.908 87.0427 98.4645 80 94.5876V160H0V0H80V70.1895C87.2573 65.9644 91.3099 57.8385 95.399 49.6394C98.9479 42.5235 102.524 35.3525 108.247 30.6281C121.195 20.0603 152 31.4651 152 79.7001Z" fill="#97FCE4"></path>
</g>
</g>
</g>
<defs>
<clipPath id="clip0_5196_1276">
<rect width="160" height="160" fill="white"></rect>
</clipPath>
<clipPath id="clip1_5196_1276">
<rect width="160" height="160" fill="white"></rect>
</clipPath>
<clipPath id="clip2_5196_1276">
<rect width="160" height="160" fill="white"></rect>
</clipPath>
<clipPath id="SvgjsClipPath1169"><rect width="1000" height="1000" x="0" y="0" rx="500" ry="500"></rect></clipPath></defs>
</svg></svg></g></g></svg>